# xmcd
#
# Track frame offsets: 
#        150
#        18667
#        31917
#        59065
#        80235
#        91480
#        104062
#        131732
#        154177
#        167130
#
# Disc length: 2459 seconds
#
# Revision: 0
# Processed by: cddbd v1.5.2PL0 Copyright (c) Steve Scherf et al.
# Submitted via: ExactAudioCopy v0.95b4
#
DISCID=8e09990a
DTITLE=Jim Robinson - New Orleans: The Living Legends - Jim Robinson P
DTITLE=lays Sprirtuals and the Blues
DYEAR=1994
DGENRE=Blues
TTITLE0=LILY OF THE VALLEY
TTITLE1=IN THE SWEET BYE AND BYE
TTITLE2=TIN ROOF BLUES
TTITLE3=JEUNES AMIS BLUES
TTITLE4=YOU PRAY FOR ME (AND I'LL PRAY FOR YOU)
TTITLE5=PRECIOUS ORD, TAKE MY HAND
TTITLE6=TOULOUSE STREET LAMENT
TTITLE7=DIPPERMOUTH BLUES
TTITLE8=PRECIOUS LORD. TAKE MY HAND (ALTERNATE)
TTITLE9=YEARNING
EXTD=
EXTT0=
EXTT1=
EXTT2=
EXTT3=
EXTT4=
EXTT5=
EXTT6=
EXTT7=
EXTT8=
EXTT9=
PLAYORDER=
